<?xml version="1.0" encoding="UTF-8" standalone="no"?>
<!-- Source: https://commons.wikimedia.org/wiki/File:KFC_Logo.svg (PD-textlogo; trademark may apply). -->
<!-- Created with Inkscape (http://www.inkscape.org/) -->

<svg
   width="703.08929mm"
   height="216.47668mm"
   viewBox="0 0 703.0893 216.47668"
   version="1.1"
   id="svg2191"
   inkscape:version="1.2 (dc2aedaf03, 2022-05-15)"
   sodipodi:docname="KFC 1997 Wordmark.svg"
   xmlns:inkscape="http://www.inkscape.org/namespaces/inkscape"
   xmlns:sodipodi="http://sodipodi.sourceforge.net/DTD/sodipodi-0.dtd"
   xmlns="http://www.w3.org/2000/svg"
   xmlns:svg="http://www.w3.org/2000/svg">
  <sodipodi:namedview
     id="namedview2193"
     pagecolor="#ffffff"
     bordercolor="#666666"
     borderopacity="1.0"
     inkscape:showpageshadow="2"
     inkscape:pageopacity="0.0"
     inkscape:pagecheckerboard="0"
     inkscape:deskcolor="#d1d1d1"
     inkscape:document-units="mm"
     showgrid="false"
     inkscape:zoom="0.2102413"
     inkscape:cx="1621.9458"
     inkscape:cy="532.72121"
     inkscape:window-width="1280"
     inkscape:window-height="747"
     inkscape:window-x="-8"
     inkscape:window-y="-8"
     inkscape:window-maximized="1"
     inkscape:current-layer="g2258" />
  <defs
     id="defs2188">
    <pattern
       id="EMFhbasepattern"
       patternUnits="userSpaceOnUse"
       width="6"
       height="6"
       x="0"
       y="0" />
  </defs>
  <g
     inkscape:label="Layer 1"
     inkscape:groupmode="layer"
     id="layer1"
     transform="translate(325.23901,-6.7205384)">
    <g
       id="g2248">
      <g
         id="g2258"
         transform="matrix(0.93818158,0.25805169,-0.25805169,0.93818158,24.258984,-6.9236535)">
        <g
           id="g2283"
           transform="rotate(-0.05782859,35.320577,120.48778)">
          <path
             style="fill:#ee1832;fill-opacity:1;fill-rule:nonzero;stroke:none;stroke-width:0.264583"
             d="m 157.28829,28.806406 c -0.3528,-53.26944 -0.3528,-53.26944 -0.3528,-53.26944 -4.32152,4.23333 -15.16943,6.61458 -19.66735,7.8493 -163.336109,45.68473 -163.336109,45.68473 -163.336109,45.68473 13.49376,2.82222 18.7854195,10.31875 19.2263795,27.25208 1.32292,144.638894 1.32292,144.638894 1.32292,144.638894 0,27.95762 -3.08679,41.0986 -13.9347095,44.0972 -8.99584,2.55765 -14.81667,-1.2347 -26.45834,-11.46527 -84.137501,-85.90138 -84.137501,-85.90138 -84.137501,-85.90138 94.279861,-115.799304 94.279861,-115.799304 94.279861,-115.799304 -103.893061,29.01597 -103.893061,29.01597 -103.893061,29.01597 16.75695,4.23333 21.96042,15.78681 9.6132,30.86806 -62.44167,84.137494 -62.44167,84.137494 -62.44167,84.137494 -0.26458,-69.7618 -0.26458,-69.7618 -0.26458,-69.7618 0.44097,-17.374304 9.70139,-28.839584 18.87361,-35.806944 -111.91875,31.397224 -111.91875,31.397224 -111.91875,31.397224 13.49375,2.55764 18.96181,10.23055 19.57917,27.34028 1.14652,144.90347 1.14652,144.90347 1.14652,144.90347 0,14.90485 0.44098,32.19095 -19.22638,47.18402 110.77222,-31.13265 110.77222,-31.13265 110.77222,-31.13265 -15.69861,-4.40971 -18.43264,-15.16944 -18.69722,-29.72152 -0.0882,-62.70625 -0.0882,-62.70625 -0.0882,-62.70625 69.49722,78.49306 69.49722,78.49306 69.49722,78.49306 51.152781,-14.64029 51.152781,-14.64029 51.152781,-14.64029 157.51529,-44.36179 157.51529,-44.36179 157.51529,-44.36179 -14.99307,-6.96738 -18.52084,-18.60904 -18.34446,-36.86529 -0.26459,-52.56387 -0.26459,-52.56387 -0.26459,-52.56387 35.806959,-10.14237 35.806959,-10.14237 35.806959,-10.14237 16.93334,-4.7625 23.98888,-2.99861 33.51388,2.64584 -0.61736,-51.770144 -0.61736,-51.770144 -0.61736,-51.770144 -4.32152,4.14514 -15.52223,6.70278 -19.57916,7.67292 -49.300689,14.02291 -49.300689,14.02291 -49.300689,14.02291 -0.35279,-49.56528 -0.35279,-49.56528 -0.35279,-49.56528 57.414579,-15.96319 57.414579,-15.96319 57.414579,-15.96319 16.58056,-4.32153 24.34167,-2.11667 33.16113,4.32153 z"
             id="path2198" />
          <path
             style="fill:#ee1832;fill-opacity:1;fill-rule:nonzero;stroke:none;stroke-width:0.264583"
             d="m 322.47647,120.44044 c -45.68473,12.43542 -80.34514,-12.7 -90.13473,-47.889584 -10.9361,-39.15834 9.78959,-87.57709 62.61807,-102.57014 16.66875,-4.40972 35.18958,-6.96736 60.85416,-3.2632 0,-43.74444 0,-43.74444 0,-43.74444 -15.96318,0.44097 -36.07152,3.70417 -59.17848,10.31875 -105.92152,29.72153 -156.9861,110.24306 -139.87637,171.009034 12.78819,45.77291 62.44167,81.49165 147.99027,57.41458 25.13542,-7.32014 49.65348,-15.34583 69.14444,-25.48819 0,-41.186814 0,-41.186814 0,-41.186814 -15.08125,9.877784 -34.74861,20.549314 -51.41736,25.400004 z"
             id="path2200" />
          <path
             style="fill:#ffffff;fill-opacity:1;fill-rule:nonzero;stroke:none;stroke-width:0.264583"
             d="m -256.87283,280.51334 c -0.97014,-151.25345 -0.97014,-151.25345 -0.97014,-151.25345 0.17639,-18.25625 -3.08681,-23.54792 -9.6132,-28.39862 9.87778,-0.35277 17.5507,4.8507 17.5507,26.37014 1.14653,151.78264 1.14653,151.78264 1.14653,151.78264 0,18.07985 -4.67431,25.84096 -17.37431,29.10417 6.87917,-6.5264 9.70139,-16.49238 9.34861,-27.60488 z"
             id="path2202" />
          <path
             style="fill:#ffffff;fill-opacity:1;fill-rule:nonzero;stroke:none;stroke-width:0.264583"
             d="M 2.7716205,208.63488 C 1.8014705,57.205016 1.8014705,57.205016 1.8014705,57.205016 c 0.1764,-17.90347 -3.26318,-23.19513 -9.87777,-28.66319 10.05417,0 17.63888,5.46806 17.63888,26.81111 1.1465405,151.870824 1.1465405,151.870824 1.1465405,151.870824 0.17637,18.25625 -3.1750005,25.4 -15.7868105,28.48681 6.79098,-5.73265 7.84931,-13.22917 7.84931,-27.07569 z"
             id="path2204" />
          <path
             style="fill:#ffffff;fill-opacity:1;fill-rule:nonzero;stroke:none;stroke-width:0.264583"
             d="M 67.418141,23.250156 C 120.15841,8.6098756 120.15841,8.6098756 120.15841,8.6098756 c 15.43404,-4.32152 29.19238,-4.58611 32.27917,7.8493104 -7.05554,-3.52778 -14.2875,-5.11528 -32.10277,0.26458 -53.181249,14.72848 -53.181249,14.72848 -53.181249,14.72848 z"
             id="path2206" />
          <path
             style="fill:#ffffff;fill-opacity:1;fill-rule:nonzero;stroke:none;stroke-width:0.264583"
             d="m 67.418141,118.32377 c 0,-8.29027 0,-8.29027 0,-8.29027 31.48542,-8.55486 31.48542,-8.55486 31.48542,-8.55486 15.257639,-4.497924 29.104159,-4.497924 32.279159,7.67291 -6.96735,-3.43958 -14.2875,-5.02708 -32.102769,0.35278 -31.66181,8.81944 -31.66181,8.81944 -31.66181,8.81944 z"
             id="path2208" />
          <path
             style="fill:#ffffff;fill-opacity:1;fill-rule:nonzero;stroke:none;stroke-width:0.264583"
             d="m 166.19591,101.47864 c -18.69721,-67.468754 46.30208,-125.677094 92.33958,-143.845144 -38.1,22.1368 -101.77637,74.78889 -83.69652,141.1993 17.72709,63.852784 91.19307,62.882644 139.61182,52.387504 -51.59375,18.9618 -129.55765,18.07985 -148.25488,-49.74166 z"
             id="path2210" />
          <path
             style="fill:#ffffff;fill-opacity:1;fill-rule:nonzero;stroke:none;stroke-width:0.264583"
             d="m -99.004779,260.31682 c -10.759721,2.46944 -21.166661,-8.29027 -21.166661,-8.29027 0.79375,1.32292 0.79375,1.32292 0.79375,1.32292 -60.76598,-68.35071 -60.76598,-68.35071 -60.76598,-68.35071 65.26389,-87.047904 65.26389,-87.047904 65.26389,-87.047904 13.22917,-17.02153 14.3757,-37.12986 -4.58611,-38.36459 8.81945,8.29028 8.46667,20.81389 -2.82222,35.45417 -67.90972,90.487494 -67.90972,90.487494 -67.90972,90.487494 71.26111,80.52154 71.26111,80.52154 71.26111,80.52154 8.90764,-2.73405 8.90764,-2.73405 8.90764,-2.73405 0,0 0,0 0,0 z"
             id="path2212" />
        </g>
      </g>
    </g>
  </g>
</svg>
