<svg width="241" height="118" viewBox="0 0 241 118" fill="none" xmlns="http://www.w3.org/2000/svg">
<path d="M15 60C15 32.3858 37.3858 10 65 10H241V118H15V60Z" fill="#F2F4F8"/>
<circle cx="48" cy="43" r="33" fill="#94a3b8"/>
<path transform="translate(48,43) scale(1.8) translate(-12,-12)" d="M12 2l3.09 6.26L22 9.27l-5 4.87 1.18 6.88L12 17.77l-6.18 3.25L7 14.14 2 9.27l6.91-1.01L12 2z" fill="white"/>
<mask id="mask0_star_light" style="mask-type:alpha" maskUnits="userSpaceOnUse" x="15" y="32" width="226" height="86">
<rect x="15" y="32" width="226" height="86" fill="#D9D9D9"/>
</mask>
<g mask="url(#mask0_star_light)">
<path d="M15.1325 132.681V114.105C14.3273 105.471 16.2976 88.3456 46.836 86.2132C74.8842 84.2548 80.8534 80.3014 95.5529 54.5306C107.653 33.3174 126.126 32.9157 143.043 32.5477C145.259 32.4995 147.449 32.4519 149.594 32.3582C160.963 31.8613 198.081 31.802 223.5 32.0005C252 32 241 29.7101 241 40.5007V224.287C241 235.175 232.146 244.001 221.225 244.001H34.775C23.8536 244.001 15 235.175 15 224.287V132.681H15.1325Z" fill="white"/>
</g>
</svg>
